<?xml version="1.0" encoding="UTF-8"?>
<svg version="1.1" xmlns="http://www.w3.org/2000/svg" width="596" height="596">
<path d="M0 0 C196.68 0 393.36 0 596 0 C596 196.68 596 393.36 596 596 C399.32 596 202.64 596 0 596 C0 399.32 0 202.64 0 0 Z " fill="#000000" transform="translate(0,0)"/>
<path d="M0 0 C18.15 0 36.3 0 55 0 C73.93155058 41.67665092 73.93155058 41.67665092 80.4375 56.8125 C85.76632625 69.2061626 91.20601146 81.54812458 96.6875 93.875 C97.11321289 94.8325116 97.53892578 95.79002319 97.97753906 96.77655029 C104.46037977 111.35099788 111.00229052 125.89829783 117.56573486 140.43658447 C123.03041521 152.54695667 128.38761621 164.69849858 133.63330078 176.90527344 C137.13196739 185.04049499 140.72073471 193.1289251 144.46313477 201.15527344 C147 206.67729017 147 206.67729017 147 210 C147.66 210 148.32 210 149 210 C149.10054687 209.0821875 149.20109375 208.164375 149.3046875 207.21875 C150.0761169 201.85368699 151.63904235 196.70285764 153.125 191.5 C153.59196289 189.84665649 153.59196289 189.84665649 154.06835938 188.15991211 C156.3930587 179.9842907 158.86207958 171.85804594 161.37353516 163.73828125 C163.91558387 155.44511285 166.15625538 147.08330131 168.37280273 138.69824219 C170.28430605 131.51821464 172.3563505 124.40716579 174.5625 117.3125 C176.91248357 109.75303959 179.0491476 102.17213971 181 94.5 C182.95085576 86.82784708 185.08776347 79.24704197 187.4375 71.6875 C189.90948182 63.7297318 192.18571103 55.74432818 194.3125 47.6875 C198.53711668 31.69342699 203.28183635 15.85378932 208 0 C212.95 0 217.9 0 223 0 C226.70642758 11.3908159 230.1278001 22.83463895 233.3203125 34.38012695 C235.3325519 41.64967276 237.42455873 48.89152387 239.5625 56.125 C241.85640425 63.90333425 243.99502447 71.70489268 246 79.5625 C248.19755494 88.16898015 250.6762237 96.65300399 253.31542969 105.13354492 C255.97287128 113.74086609 258.3218393 122.42020252 260.60327148 131.1340332 C261.99288335 136.41024812 263.48872037 141.59477 265.25830078 146.75537109 C266.68767853 151.08114431 267.8543485 155.48339638 269.0625 159.875 C272.13574532 170.95253969 275.27452551 182.01030287 278.4375 193.0625 C278.6645462 193.85613953 278.89159241 194.64977905 279.1255188 195.46746826 C280.41611717 199.97856889 281.70762814 204.48940714 283 209 C288.36320613 197.58322102 293.61314712 186.11724947 298.8125 174.625 C299.21985382 173.72514374 299.62720764 172.82528748 300.04690552 171.89816284 C308.1761253 153.92889928 316.1150994 135.87876856 324.01750183 117.80889893 C328.37893325 107.84024143 332.80600757 97.90104135 337.23535156 87.96240234 C340.21150646 81.28192117 343.17970028 74.5978969 346.14941406 67.91455078 C347.87731094 64.02592903 349.60585232 60.13759481 351.33496094 56.24951172 C355.10198082 47.77808149 358.8672711 39.30593801 362.61560059 30.82621765 C364.10169976 27.46445685 365.58967657 24.10352865 367.07775879 20.74264526 C367.77107735 19.17516263 368.46339339 17.60723615 369.15466309 16.03884888 C370.10324034 13.88677513 371.05515461 11.73620727 372.0078125 9.5859375 C372.54035645 8.3798584 373.07290039 7.1737793 373.62158203 5.93115234 C375 3 375 3 377 0 C379.29055786 -0.36076355 379.29055786 -0.36076355 382.18408203 -0.34057617 C383.80553635 -0.34023628 383.80553635 -0.34023628 385.45974731 -0.33988953 C386.63060883 -0.32440567 387.80147034 -0.30892181 389.0078125 -0.29296875 C390.8014473 -0.28660149 390.8014473 -0.28660149 392.63131714 -0.28010559 C396.46277071 -0.26326902 400.29370453 -0.22560684 404.125 -0.1875 C406.71744034 -0.17245964 409.30988889 -0.15877011 411.90234375 -0.14648438 C418.26843043 -0.11334906 424.634127 -0.06153193 431 0 C431 6.6 431 13.2 431 20 C424.07 20 417.14 20 410 20 C410.10957031 21.61648437 410.21914063 23.23296875 410.33203125 24.8984375 C411.61296816 44.5564757 412.5659935 64.22880223 413.46392441 83.9074173 C413.56070466 86.02324994 413.65836716 88.13904016 413.7562561 90.25482178 C414.37976632 103.76119288 414.97051663 117.26494493 415.34613132 130.78074551 C415.66162175 142.02369741 416.09753787 153.22527441 416.84350586 164.44848633 C417.88803298 180.81474194 418.66085891 197.19366831 419.42041016 213.57519531 C419.4520876 214.25810277 419.48376504 214.94101023 419.51640241 215.64461185 C419.95760596 225.16429911 420.39337099 234.68423295 420.82786608 244.2042284 C421.04061707 248.86455359 421.25426929 253.52483719 421.46812057 258.185112 C422.17791149 273.65485891 422.88571556 289.12469477 423.59083529 304.59465531 C423.62853542 305.42177355 423.66623556 306.24889179 423.70507812 307.10107422 C423.76169861 308.34330693 423.76169861 308.34330693 423.81946294 309.61063525 C424.43294719 323.06754085 425.05126476 336.52421952 425.67174132 349.98080435 C426.31277063 363.88432754 426.95019142 377.78801218 427.58391225 391.69187045 C427.93822112 399.46384706 428.29394861 407.23575229 428.65358353 415.00748444 C428.95913566 421.61109099 429.26128845 428.21484278 429.55923368 434.81879708 C429.71077196 438.17559004 429.86428443 441.53225918 430.02103615 444.88881493 C430.72311094 459.94563657 431.1250959 474.92570789 431 490 C436.94 490 442.88 490 449 490 C449 496.6 449 503.2 449 510 C431.18 510 413.36 510 395 510 C394.3179924 505.22594678 393.81503296 500.80064776 393.59863281 496.02173424 C393.56738784 495.35233285 393.53614286 494.68293146 393.50395107 493.99324518 C393.40045663 491.75827595 393.3017981 489.52312024 393.203125 487.28793335 C393.12901943 485.66597229 393.05461388 484.04402492 392.97993469 482.42209017 C392.77584926 477.97091805 392.57599191 473.51956461 392.37681961 469.06817031 C392.16115436 464.26488806 391.94155205 459.46178564 391.72241211 454.65866089 C391.34321222 446.33588584 390.96645416 438.01300314 390.59130859 429.6900444 C390.04823314 417.64228231 389.50101476 405.59471112 388.95271111 393.54718597 C388.06233711 373.98192807 387.17469763 354.41654717 386.2890625 334.85107422 C386.20955762 333.09467371 386.20955762 333.09467371 386.12844658 331.30279036 C386.02117974 328.93305328 385.91391331 326.56331618 385.8066473 324.19357906 C385.75347127 323.01880807 385.70029524 321.84403709 385.64550781 320.63366699 C385.59228898 319.45793435 385.53907015 318.2822017 385.48423862 317.0708408 C384.89365464 304.02425457 384.30241879 290.97769792 383.7109375 277.93115234 C383.65799971 276.76346539 383.60506191 275.59577844 383.55051994 274.39270703 C382.66708724 254.90755501 381.78201905 235.42247752 380.89601135 215.93744242 C380.34985743 203.9243196 379.80530743 191.91112602 379.26284504 179.89783593 C378.89084172 171.66117398 378.51743329 163.42457653 378.14293194 155.18802778 C377.92706806 150.43919065 377.71188161 145.69032531 377.49850464 140.94137573 C377.30286954 136.58746545 377.10533123 132.23364568 376.90633202 127.87988789 C376.83496784 126.31126804 376.76428785 124.74261686 376.69439125 123.17393093 C376.28971886 114.10137872 375.76227271 105.05043198 375 96 C370.40950692 106.26445657 365.87829969 116.55408003 361.38000488 126.85925293 C354.00677183 143.74844663 346.53425045 160.59248124 339.03662109 177.42675781 C330.61564463 196.3344902 322.20454827 215.24664536 313.84378052 234.18109131 C313.2117522 235.61238808 312.5794995 237.04358579 311.94699097 238.47467041 C310.50686053 241.7337203 309.0715746 244.99466004 307.64746094 248.26074219 C306.53180095 250.81371043 305.37993371 253.34628536 304.20410156 255.87207031 C303.63864734 257.11522322 303.0732167 258.35838684 302.5078125 259.6015625 C302.00137207 260.69033691 301.49493164 261.77911133 300.97314453 262.90087891 C299.84872778 266.4817485 300.08862536 268.39252526 301 272 C301.21285645 272.89195068 301.42571289 273.78390137 301.64501953 274.70288086 C302.01022705 276.07005249 302.01022705 276.07005249 302.3828125 277.46484375 C302.79756836 279.01751953 302.79756836 279.01751953 303.22070312 280.6015625 C303.51912109 281.70242188 303.81753906 282.80328125 304.125 283.9375 C304.43630859 285.09121094 304.74761719 286.24492187 305.06835938 287.43359375 C307.34244175 295.77952183 309.80781047 304.05217128 312.37353516 312.31225586 C314.92432482 320.58917754 317.16085971 328.93637577 319.375 337.30859375 C321.26971623 344.42223815 323.31596151 351.47012612 325.5 358.5 C328.02309922 366.62122561 330.32562277 374.77860993 332.5 383 C334.65836648 391.15709949 336.93635637 399.25380955 339.4375 407.3125 C342.5049312 417.19961144 345.28376939 427.15225633 348.01049805 437.13818359 C350.1865232 445.09280552 352.42920944 453.02391244 354.75 460.9375 C355.0375415 461.91936279 355.32508301 462.90122559 355.62133789 463.9128418 C356.63924733 467.382893 357.65901548 470.85234905 358.68896484 474.31884766 C359.27597959 476.29466441 359.85700894 478.27225677 360.4375 480.25 C360.74558594 481.28640625 361.05367188 482.3228125 361.37109375 483.390625 C362 486 362 486 362 490 C367.61 490 373.22 490 379 490 C379 496.6 379 503.2 379 510 C362.5 510 346 510 329 510 C327.4840625 504.3075 327.4840625 504.3075 325.9375 498.5 C323.29002753 488.62104588 320.52013413 478.7863025 317.62670898 468.97680664 C315.51743412 461.81490509 313.49314795 454.63250844 311.5 447.4375 C309.32223664 439.58679005 307.03920085 431.78109117 304.625 424 C301.48861673 413.86912562 298.68611055 403.65736033 295.92156982 393.4206543 C292.4481959 380.56295453 288.78612572 367.76937078 285 355 C284.31286347 352.67092949 283.6268856 350.3415216 282.94140625 348.01196289 C282.53185465 346.620346 282.12172772 345.22889825 281.7109375 343.83764648 C280.73750947 340.53558587 279.77752578 337.23037213 278.83984375 333.91796875 C278.56370239 332.9427124 278.56370239 332.9427124 278.28198242 331.94775391 C277.78480013 330.18582564 277.29072048 328.42302269 276.796875 326.66015625 C276.10003755 324.05695895 276.10003755 324.05695895 275 322 C267.28635002 338.98708223 259.64735102 355.99799944 252.24609375 373.12402344 C249.95027366 378.4227618 247.63308756 383.71207112 245.3125 389 C244.67115112 390.46735596 244.67115112 390.46735596 244.0168457 391.96435547 C240.46861923 400.04187237 236.73410397 407.99834864 233 416 C221.45 416 209.9 416 198 416 C196.618125 413.133125 195.23625 410.26625 193.8125 407.3125 C193.38815674 406.43891846 192.96381348 405.56533691 192.52661133 404.6652832 C190.321488 400.04816467 188.35252688 395.40163964 186.546875 390.61328125 C184.13061604 384.21945226 181.35045597 378.05538066 178.4375 371.875 C177.38401433 369.61263165 176.33197899 367.34958748 175.28125 365.0859375 C174.74371094 363.92803711 174.20617187 362.77013672 173.65234375 361.57714844 C170.87662258 355.56800739 168.14662633 349.53948551 165.4375 343.5 C164.68714478 341.84653564 164.68714478 341.84653564 163.92163086 340.15966797 C161.1144458 333.8760734 158.77027572 327.65363474 157 321 C156.34 321 155.68 321 155 321 C154.89816406 321.74894531 154.79632813 322.49789063 154.69140625 323.26953125 C153.72410847 328.48856731 152.32713211 333.56684251 150.9375 338.6875 C150.62876953 339.83089844 150.32003906 340.97429687 150.00195312 342.15234375 C147.47222941 351.43982641 144.75214774 360.66400022 141.984375 369.8828125 C139.35212133 378.69425624 136.93379376 387.55143195 134.57421875 396.43920898 C132.37983281 404.67376689 130.03564695 412.85629274 127.62475586 421.02978516 C125.51615507 428.18949411 123.49250429 435.36969295 121.5 442.5625 C119.2820766 450.55915352 116.95427735 458.51030073 114.5 466.4375 C111.53052416 476.02977121 108.86693663 485.68857149 106.30859375 495.39819336 C106.0353125 496.43339111 105.76203125 497.46858887 105.48046875 498.53515625 C105.24223389 499.446604 105.00399902 500.35805176 104.75854492 501.29711914 C103.93625938 504.22712338 102.96234497 507.1129651 102 510 C85.83 510 69.66 510 53 510 C53 503.4 53 496.8 53 490 C58.28 490 63.56 490 69 490 C69.27585937 488.54464844 69.55171875 487.08929687 69.8359375 485.58984375 C70.85672856 480.49750867 72.16470959 475.54405805 73.625 470.5625 C74.0108728 469.22674927 74.0108728 469.22674927 74.40454102 467.86401367 C75.88714078 462.75095088 77.40092882 457.64747974 78.92578125 452.546875 C82.59780603 440.25947325 86.13448671 427.95721539 89.42553711 415.56201172 C91.61983669 407.32700047 93.96423595 399.14410426 96.37524414 390.97021484 C98.48384493 383.81050589 100.50749571 376.63030705 102.5 369.4375 C104.71792698 361.44083358 107.0461236 353.48982887 109.5 345.5625 C112.36588418 336.28986161 114.94494055 326.95853788 117.4387207 317.57958984 C119.29591177 310.59797559 121.20145295 303.63360469 123.1875 296.6875 C123.55536621 295.39900146 123.55536621 295.39900146 123.93066406 294.08447266 C125.58239095 288.34387901 127.34191354 282.64947349 129.23828125 276.984375 C131.44288102 268.34686616 130.88107361 263.10001039 127.0390625 255.015625 C126.61507172 254.07934265 126.19108093 253.1430603 125.75424194 252.17840576 C124.39733663 249.19288559 123.01228407 246.22150731 121.625 243.25 C120.73109193 241.30168893 119.8391481 239.35247539 118.94921875 237.40234375 C117.62066881 234.49159471 116.29067583 231.58162849 114.95236206 228.675354 C111.49048317 221.14456359 108.18470452 213.55472649 104.95620728 205.92120361 C102.93661308 201.14963819 100.84137665 196.43361752 98.625 191.75 C98.31038818 191.08379639 97.99577637 190.41759277 97.67163086 189.73120117 C97.41776611 189.19470947 97.16390137 188.65821777 96.90234375 188.10546875 C94.09642427 182.10727511 91.48173908 176.02328714 88.82958984 169.95605469 C85.77231777 162.98174872 82.67012735 156.02951665 79.53515625 149.08984375 C79.14245041 148.22005386 78.74974457 147.35026398 78.34513855 146.45411682 C76.38648002 142.11749838 74.42437583 137.7824799 72.45776367 133.44946289 C68.58200128 124.88709303 64.80800072 116.30271671 61.30706787 107.57922363 C59.70920811 103.61708416 57.9299719 99.809647 56 96 C55.9545382 96.98968434 55.9090764 97.97936869 55.86223698 98.99904346 C54.75484813 123.10397615 53.6446258 147.20877706 52.53144932 171.31344318 C51.99318647 182.97037586 51.45583718 194.6273493 50.9206543 206.28442383 C50.45407106 216.44724567 49.98575766 226.60998607 49.51538509 236.77263325 C49.26649409 242.15135196 49.01845703 247.53010692 48.77249336 252.90896034 C48.5406975 257.97738537 48.30657873 263.0456979 48.07072067 268.11393547 C47.98481578 269.96855399 47.89974088 271.82321118 47.81558418 273.67790985 C47.43750011 282.00113139 47.03713523 290.2939069 46.21516132 298.58734035 C45.83792619 302.81737566 45.71971638 307.05371747 45.59008789 311.29736328 C45.52101294 313.35058061 45.45178563 315.40379283 45.38243103 317.45700073 C45.34664381 318.54706295 45.31085659 319.63712517 45.27398491 320.76021957 C44.08848342 356.53598841 42.43389219 392.29117035 40.7948128 428.04839635 C40.47123758 435.11673973 40.15323502 442.1853268 39.83626598 449.25396907 C39.52622277 456.16304772 39.21255399 463.07195539 38.89597851 469.98073781 C38.70878356 474.06719131 38.52303095 478.15369736 38.34097099 482.24038315 C38.17194665 486.03165851 37.99843599 489.82270118 37.82133102 493.61360741 C37.75719138 495.00318239 37.69469346 496.39283421 37.63391685 497.78256035 C37.55116698 499.66902912 37.4620482 501.55521539 37.37254333 503.44137573 C37.30039187 505.02525243 37.30039187 505.02525243 37.2267828 506.64112663 C37 509 37 509 36 510 C34.34261557 510.09346915 32.68125356 510.11744977 31.02124023 510.11352539 C29.96021591 510.11344986 28.89919159 510.11337433 27.80601501 510.11329651 C26.07479149 510.10555458 26.07479149 510.10555458 24.30859375 510.09765625 C23.13361832 510.0962413 21.95864288 510.09482635 20.74806213 510.09336853 C16.97784936 510.08774992 13.20769496 510.07519426 9.4375 510.0625 C6.88867273 510.0574874 4.33984453 510.05292408 1.79101562 510.04882812 C-4.4726789 510.03777444 -10.73632954 510.02049734 -17 510 C-17 503.4 -17 496.8 -17 490 C-11.39 490 -5.78 490 0 490 C0.03912726 488.6911062 0.07825453 487.38221241 0.11856747 486.03365517 C1.50247985 440.39298407 3.5570156 394.78740796 5.65909407 349.17514219 C6.15571988 338.3964294 6.64842029 327.61753804 7.14103096 316.83864112 C8.0200035 297.60828116 8.90219594 278.37807036 9.78637695 259.14794922 C10.64113973 240.55755586 11.49377272 221.96706647 12.34399414 203.37646484 C12.39666921 202.22470113 12.44934428 201.07293741 12.50361557 199.88627176 C12.60975853 197.56537552 12.71590125 195.24447927 12.82204374 192.92358301 C12.8744225 191.7782834 12.92680126 190.63298379 12.98076725 189.45297813 C13.03302774 188.31024684 13.08528824 187.16751554 13.13913238 185.99015602 C13.95561938 168.13840104 14.77382061 150.28672458 15.59227913 132.4350599 C15.88711079 126.00412619 16.18173311 119.57318294 16.47620923 113.14223294 C16.94199454 102.97055798 17.40854013 92.79891847 17.87658126 82.62734704 C18.08990883 77.99104527 18.30291043 73.35472923 18.51495361 68.71836853 C18.70949359 64.46504942 18.9050787 60.21177962 19.10145526 55.95854492 C19.17177717 54.43176966 19.24174275 52.90497793 19.31128753 51.37816708 C19.78828386 40.91263704 20.36851656 30.45734339 21 20 C14.07 20 7.14 20 0 20 C0 13.4 0 6.8 0 0 Z " fill="#FBFBFB" transform="translate(82,43)"/>
<path d="M0 0 C2.39174269 2.39174269 2.67369442 3.89134032 3.515625 7.14453125 C3.9331604 8.73189087 3.9331604 8.73189087 4.35913086 10.35131836 C4.65311768 11.4935083 4.94710449 12.63569824 5.25 13.8125 C5.88027902 16.20605376 6.51180441 18.59927965 7.14453125 20.9921875 C7.61560303 22.78027832 7.61560303 22.78027832 8.09619141 24.60449219 C9.32738462 29.22994739 10.61735636 33.83673814 11.9375 38.4375 C12.17637939 39.27104004 12.41525879 40.10458008 12.66137695 40.96337891 C14.05021221 45.78037489 15.47017775 50.58750685 16.90625 55.390625 C20.50683337 67.43365414 23.98308634 79.48896303 27.20800781 91.63818359 C29.76462787 101.22622939 32.46068297 110.77178739 35.1875 120.3125 C35.39791931 121.05048828 35.60833862 121.78847656 35.82513428 122.54882812 C36.43772398 124.69580003 37.05240259 126.842161 37.66796875 128.98828125 C37.8635437 129.67258209 38.05911865 130.35688293 38.26062012 131.06192017 C39.52120138 135.44006447 40.89334186 139.77179273 42.30078125 144.10546875 C45.14724193 153.47787297 43.68517016 158.62351639 39.5 167.1875 C38.48061161 169.3412847 37.463849 171.49631345 36.44921875 173.65234375 C35.89411621 174.82651855 35.33901367 176.00069336 34.76708984 177.21044922 C31.50176788 184.17180282 28.42286073 191.21850084 25.3125 198.25 C24.63950127 199.76822686 23.96632306 201.28637417 23.29296875 202.80444336 C21.91165582 205.91883534 20.53103277 209.03353171 19.15087891 212.1484375 C15.80050055 219.70798946 12.44016584 227.2631191 9.0809021 234.81872559 C7.36608345 238.67586927 5.65180454 242.5332528 3.9375 246.390625 C3.36328394 247.68261838 2.78906549 248.9746107 2.21484375 250.26660156 C1.81394531 251.16862305 1.41304688 252.07064453 1 253 C-0.62856825 250.55714762 -1.82601537 248.36999282 -3.0390625 245.72265625 C-3.44608398 244.83594238 -3.85310547 243.94922852 -4.27246094 243.03564453 C-4.71879883 242.05450684 -5.16513672 241.07336914 -5.625 240.0625 C-6.10227539 239.01690918 -6.57955078 237.97131836 -7.07128906 236.89404297 C-12.04006955 225.97245629 -16.93134111 215.01566993 -21.77563477 204.03833008 C-22.45841006 202.49166124 -23.14127181 200.94503056 -23.82421875 199.3984375 C-24.16419388 198.62845932 -24.50416901 197.85848114 -24.85444641 197.06517029 C-26.96807277 192.29160034 -29.11919805 187.53694622 -31.30099487 182.79415894 C-32.72582625 179.69299454 -34.13650288 176.58549358 -35.54577637 173.47723389 C-36.21692543 172.00701535 -36.89478216 170.53983809 -37.57971191 169.07598877 C-38.53036215 167.04256543 -39.45679887 164.9996161 -40.37890625 162.953125 C-41.17663452 161.22304199 -41.17663452 161.22304199 -41.99047852 159.45800781 C-43.78842246 153.29934323 -42.08637248 147.75625198 -40.3984375 141.68359375 C-40.07673584 140.51932861 -39.75503418 139.35506348 -39.42358398 138.15551758 C-39.07755127 136.92857178 -38.73151855 135.70162598 -38.375 134.4375 C-38.01291584 133.13896797 -37.65102067 131.84038323 -37.28930664 130.54174805 C-34.85367431 121.83849469 -32.26108185 113.18825458 -29.58227539 104.55688477 C-26.97580032 96.09048856 -24.68514221 87.54897737 -22.41381836 78.98754883 C-21.03235572 73.79270219 -19.63139949 68.6232886 -18 63.5 C-16.02312904 57.28337173 -14.36522554 50.98981323 -12.6875 44.6875 C-9.54098743 32.87291343 -6.1750978 21.13286556 -2.70849609 9.40869141 C-1.7874813 6.27749502 -0.89033097 3.14004532 0 0 Z " fill="#010101" transform="translate(297,153)"/>
<path d="M0 0 C24.75 0 49.5 0 75 0 C75 196.68 75 393.36 75 596 C50.58 596 26.16 596 1 596 C1 595.67 1 595.34 1 595 C2.01578125 594.76925781 3.0315625 594.53851562 4.078125 594.30078125 C26.51532879 589.05138422 46.80038303 578.68053489 60 559 C67.45344117 546.60512105 73.16774631 532.93175607 73.13142776 518.33358097 C73.13450672 517.18143619 73.13450672 517.18143619 73.13764787 516.00601575 C73.14331822 513.4231076 73.14186056 510.84025276 73.14044189 508.25733948 C73.14302552 506.39034191 73.14603868 504.52334489 73.1494453 502.65634865 C73.15751908 497.51835671 73.15930508 492.38037874 73.16004276 487.24238122 C73.16189271 481.7036318 73.16943984 476.16488964 73.17617798 470.62614441 C73.18976543 458.51018538 73.19578692 446.39422966 73.20018864 434.27826428 C73.20295087 426.71221614 73.20718824 419.14616927 73.21169281 411.58012199 C73.22388698 390.63073725 73.23422074 369.6813532 73.2375679 348.73196507 C73.23778953 347.37732059 73.23801132 346.02267611 73.23823325 344.66803163 C73.23845389 343.31014329 73.23867437 341.95225495 73.2388947 340.59436661 C73.23933725 337.87028412 73.23978437 335.14620163 73.24023438 332.42211914 C73.24034377 331.74670562 73.24045316 331.07129209 73.24056586 330.37541149 C73.24419456 308.48684689 73.26010714 286.59831544 73.28342474 264.70976353 C73.30804269 241.55812443 73.32173498 218.40650352 73.32293582 195.2548489 C73.32385211 182.63866196 73.32959275 170.02251843 73.34775543 157.40634346 C73.36317021 146.66100238 73.3682688 135.91571812 73.36001733 125.17036808 C73.35611547 119.69021004 73.35701776 114.21016634 73.37107468 108.73002243 C73.38384149 103.70675803 73.38259163 98.68369358 73.37048396 93.66042935 C73.36853176 91.84943804 73.3715832 90.03843242 73.38032833 88.22746117 C73.44096639 74.81404371 72.49906581 62.12577631 66.75 49.75 C66.44626465 49.0801709 66.1425293 48.4103418 65.82958984 47.72021484 C63.1564778 42.00314644 59.98595108 36.90514315 56 32 C55.33355469 31.17113281 54.66710937 30.34226562 53.98046875 29.48828125 C40.11218616 13.1711848 21.0286032 3.78913411 0 1 C0 0.67 0 0.34 0 0 Z " fill="#E0E0E0" transform="translate(521,0)"/>
<path d="M0 0 C0.33 0 0.66 0 1 0 C1 25.41 1 50.82 1 77 C-23.42 77 -47.84 77 -73 77 C-73 76.67 -73 76.34 -73 76 C-71.47632813 75.65388672 -71.47632813 75.65388672 -69.921875 75.30078125 C-47.48467121 70.05138422 -27.19961697 59.68053489 -14 40 C-6.50941467 27.54335128 -1.94057042 14.40107526 0 0 Z " fill="#FCFCFC" transform="translate(595,519)"/>
<path d="M0 0 C0.33 0 0.66 0 1 0 C1.07476562 0.76441406 1.14953125 1.52882813 1.2265625 2.31640625 C3.68877991 22.37623633 14.16791571 42.13578403 29.6875 55.1875 C43.92268644 65.95230713 58.59272447 71.11698824 76 74 C76 74.33 76 74.66 76 75 C50.92 75 25.84 75 0 75 C0 50.25 0 25.5 0 0 Z " fill="#FBFBFB" transform="translate(0,521)"/>
<path d="M0 0 C24.42 0 48.84 0 74 0 C74 0.33 74 0.66 74 1 C72.34677734 1.29390625 72.34677734 1.29390625 70.66015625 1.59375 C54.76100535 4.63932068 41.15428232 10.06806486 29 21 C28.39285156 21.46664063 27.78570313 21.93328125 27.16015625 22.4140625 C11.42143732 34.61959963 3.73646105 54.97354726 1 74 C0.67 74 0.34 74 0 74 C0 49.58 0 25.16 0 0 Z " fill="#FCFCFC" transform="translate(0,0)"/>
<path d="M0 0 C5.6193002 -0.0249559 11.23856722 -0.04297966 16.85791016 -0.05493164 C18.7644914 -0.05992101 20.67106891 -0.06671487 22.57763672 -0.07543945 C42.88877885 -0.16597155 42.88877885 -0.16597155 53 1 C53 1.33 53 1.66 53 2 C42.01407302 3.19789698 31.20964855 2.92627754 20.1875 2.5625 C18.41603455 2.50913381 16.64455007 2.45639511 14.87304688 2.40429688 C10.58177806 2.27675124 6.29085477 2.14076225 2 2 C1.67 2.66 1.34 3.32 1 4 C0.67 2.68 0.34 1.36 0 0 Z " fill="#E2E2E2" transform="translate(271,438)"/>
</svg>
